<svg xmlns="http://www.w3.org/2000/svg" xmlns:xlink="http://www.w3.org/1999/xlink" width="500" zoomAndPan="magnify" viewBox="0 0 375 374.999991" height="500" preserveAspectRatio="xMidYMid meet" version="1.0"><defs><g/><clipPath id="467fea5264"><path d="M 210 144 L 287.902344 144 L 287.902344 168 L 210 168 Z M 210 144 " clip-rule="nonzero"/></clipPath><clipPath id="83970bf69c"><path d="M 252 127.523438 L 275 127.523438 L 275 150 L 252 150 Z M 252 127.523438 " clip-rule="nonzero"/></clipPath><clipPath id="304d24d32c"><path d="M 117.75 168.746094 L 290.828125 168.746094 L 290.828125 220.304688 L 117.75 220.304688 Z M 117.75 168.746094 " clip-rule="nonzero"/></clipPath></defs><rect x="-37.5" width="450" fill="none" y="-37.499999" height="449.999989" fill-opacity="1"/><rect x="-37.5" width="450" fill="none" y="-37.499999" height="449.999989" fill-opacity="1"/><path fill="#ffff" d="M 273.773438 190.324219 C 270.9375 194.246094 267.234375 198.242188 263.375 201.925781 C 259.875 213.652344 250.660156 223.402344 238.027344 227.054688 C 227.015625 230.242188 215.738281 228.121094 206.90625 222.207031 C 204.429688 220.558594 202.164062 218.609375 200.15625 216.394531 C 196.414062 212.316406 193.535156 207.339844 191.882812 201.683594 C 187.566406 186.816406 192.964844 171.4375 204.359375 162.335938 L 206.066406 157.945312 C 206.140625 157.746094 206.75 156.226562 208.003906 154.164062 C 187.78125 163.660156 176.898438 186.6875 183.308594 208.804688 C 190.425781 233.324219 216.105469 247.453125 240.671875 240.347656 C 262.847656 233.949219 276.519531 212.46875 273.773438 190.324219 Z M 273.773438 190.324219 " fill-opacity="1" fill-rule="nonzero"/><g clip-path="url(#467fea5264)"><path fill="#ffff" d="M 287.527344 149.53125 C 287.527344 149.53125 283.015625 168.378906 264.113281 167.242188 C 261.109375 167.070312 257.734375 166.375 253.960938 165.007812 C 251.097656 164 247.996094 162.59375 244.644531 160.730469 C 244.644531 160.730469 242.382812 159.109375 238.464844 157.703125 L 238.421875 157.6875 C 236.628906 157.050781 234.507812 156.453125 232.101562 156.066406 C 226.203125 155.128906 218.585938 155.441406 210.039062 159.492188 C 210.039062 159.492188 210.210938 159.039062 210.59375 158.300781 C 211.347656 156.777344 212.933594 154.019531 215.535156 151.378906 C 220.949219 145.890625 230.71875 140.945312 246.484375 148.71875 C 246.484375 148.71875 269.257812 163.617188 287.527344 149.53125 Z M 287.527344 149.53125 " fill-opacity="1" fill-rule="nonzero"/></g><path fill="#b61e23" d="M 272.632812 184.328125 C 270.824219 187.46875 267.988281 190.90625 264.796875 194.261719 C 264.8125 194.277344 264.796875 194.277344 264.796875 194.277344 C 256.167969 203.386719 245.058594 211.84375 245.058594 211.84375 C 264.96875 186.445312 257.363281 181.710938 255.65625 180.957031 C 246.8125 177.089844 243.011719 188.234375 243.011719 188.234375 C 228.039062 218.457031 204.5 218.113281 204.5 218.113281 C 242.195312 181.355469 237.910156 162.394531 237.910156 162.394531 C 249.289062 169.488281 254.546875 171.207031 259.300781 171.730469 C 261.183594 171.945312 262.976562 171.988281 265.039062 172.085938 C 265.980469 172.128906 266.847656 172.214844 267.632812 172.339844 C 275.90625 173.554688 276.0625 178.414062 272.632812 184.328125 Z M 272.632812 184.328125 " fill-opacity="1" fill-rule="nonzero"/><g clip-path="url(#83970bf69c)"><path fill="#b61e23" d="M 274.742188 138.667969 C 274.742188 139.398438 274.671875 140.125 274.527344 140.84375 C 274.386719 141.558594 274.171875 142.257812 273.894531 142.933594 C 273.613281 143.609375 273.269531 144.25 272.863281 144.859375 C 272.453125 145.46875 271.992188 146.03125 271.472656 146.546875 C 270.953125 147.066406 270.390625 147.527344 269.78125 147.933594 C 269.171875 148.339844 268.527344 148.683594 267.851562 148.964844 C 267.171875 149.242188 266.476562 149.453125 265.757812 149.597656 C 265.039062 149.742188 264.3125 149.8125 263.578125 149.8125 C 262.84375 149.8125 262.117188 149.742188 261.398438 149.597656 C 260.679688 149.453125 259.984375 149.242188 259.304688 148.964844 C 258.628906 148.683594 257.984375 148.339844 257.375 147.933594 C 256.765625 147.527344 256.203125 147.066406 255.683594 146.546875 C 255.164062 146.03125 254.703125 145.46875 254.292969 144.859375 C 253.886719 144.25 253.542969 143.609375 253.261719 142.933594 C 252.980469 142.257812 252.769531 141.558594 252.628906 140.84375 C 252.484375 140.125 252.414062 139.398438 252.414062 138.667969 C 252.414062 137.9375 252.484375 137.210938 252.628906 136.492188 C 252.769531 135.777344 252.980469 135.078125 253.261719 134.402344 C 253.542969 133.726562 253.886719 133.085938 254.292969 132.476562 C 254.703125 131.867188 255.164062 131.304688 255.683594 130.789062 C 256.203125 130.269531 256.765625 129.808594 257.375 129.402344 C 257.984375 128.996094 258.628906 128.652344 259.304688 128.371094 C 259.984375 128.09375 260.679688 127.882812 261.398438 127.738281 C 262.117188 127.59375 262.84375 127.523438 263.578125 127.523438 C 264.3125 127.523438 265.039062 127.59375 265.757812 127.738281 C 266.476562 127.882812 267.171875 128.09375 267.851562 128.371094 C 268.527344 128.652344 269.171875 128.996094 269.78125 129.402344 C 270.390625 129.808594 270.953125 130.269531 271.472656 130.789062 C 271.992188 131.304688 272.453125 131.867188 272.863281 132.476562 C 273.269531 133.085938 273.613281 133.726562 273.894531 134.402344 C 274.171875 135.078125 274.386719 135.777344 274.527344 136.492188 C 274.671875 137.210938 274.742188 137.9375 274.742188 138.667969 Z M 274.742188 138.667969 " fill-opacity="1" fill-rule="nonzero"/></g><g clip-path="url(#304d24d32c)"><path fill="#04315b" d="M 117.75 168.746094 L 290.757812 168.746094 L 290.757812 220.304688 L 117.75 220.304688 Z M 117.75 168.746094 " fill-opacity="1" fill-rule="nonzero"/></g><g fill="#b61e23" fill-opacity="1"><g transform="translate(41.141266, 201.408424)"><g><path d="M 6.296875 -40.84375 C 7.648438 -40.84375 8.765625 -40.820312 9.640625 -40.78125 C 10.515625 -40.75 11.144531 -40.691406 11.53125 -40.609375 C 12.539062 -40.492188 13.203125 -40.164062 13.515625 -39.625 C 13.828125 -39.269531 13.984375 -38.609375 13.984375 -37.640625 C 13.984375 -37.441406 13.984375 -37.207031 13.984375 -36.9375 C 13.984375 -36.664062 13.945312 -36.359375 13.875 -36.015625 C 13.832031 -35.734375 13.78125 -35.300781 13.71875 -34.71875 C 13.664062 -34.144531 13.578125 -33.445312 13.453125 -32.625 L 12.9375 -28.90625 L 11.765625 -20.6875 L 11.484375 -18.59375 L 24.296875 -18.59375 L 24.59375 -20.75 C 24.78125 -21.945312 24.929688 -22.929688 25.046875 -23.703125 C 25.171875 -24.484375 25.269531 -25.070312 25.34375 -25.46875 C 25.695312 -26.707031 26.164062 -27.5625 26.75 -28.03125 C 27.289062 -28.414062 28.085938 -28.664062 29.140625 -28.78125 C 29.953125 -28.894531 31.582031 -28.953125 34.03125 -28.953125 L 32.578125 -18.59375 C 32.492188 -18.082031 32.375 -17.632812 32.21875 -17.25 C 32.101562 -16.820312 31.890625 -16.410156 31.578125 -16.015625 C 31.304688 -15.628906 31.035156 -15.34375 30.765625 -15.15625 C 30.378906 -14.875 29.929688 -14.660156 29.421875 -14.515625 C 29.890625 -14.390625 30.238281 -14.210938 30.46875 -13.984375 C 30.78125 -13.753906 31.035156 -13.40625 31.234375 -12.9375 C 31.390625 -12.582031 31.46875 -12.097656 31.46875 -11.484375 C 31.46875 -11.328125 31.46875 -11.148438 31.46875 -10.953125 C 31.46875 -10.753906 31.445312 -10.5625 31.40625 -10.375 L 31.109375 -8.21875 C 30.992188 -7.25 30.878906 -6.429688 30.765625 -5.765625 C 30.648438 -5.109375 30.550781 -4.601562 30.46875 -4.25 C 30.3125 -3.207031 30.039062 -2.375 29.65625 -1.75 C 29.269531 -1.050781 28.570312 -0.582031 27.5625 -0.34375 C 27.175781 -0.269531 26.484375 -0.203125 25.484375 -0.140625 C 24.492188 -0.0859375 23.222656 -0.0625 21.671875 -0.0625 L 22.84375 -8.21875 L 23.125 -10.375 L 10.3125 -10.375 L 10.015625 -8.21875 C 9.742188 -6.15625 9.515625 -4.738281 9.328125 -3.96875 C 9.085938 -2.800781 8.753906 -1.941406 8.328125 -1.390625 C 7.785156 -0.816406 6.894531 -0.410156 5.65625 -0.171875 C 5.257812 -0.128906 4.632812 -0.0976562 3.78125 -0.078125 C 2.925781 -0.0664062 1.859375 -0.0625 0.578125 -0.0625 L 1.75 -8.21875 L 2.046875 -10.375 L 3.203125 -18.59375 L 3.5 -20.6875 L 4.65625 -28.90625 L 5.1875 -32.625 Z M 6.296875 -40.84375 "/></g></g></g><g fill="#b61e23" fill-opacity="1"><g transform="translate(72.365878, 201.408424)"><g><path d="M 6.296875 -40.84375 C 9.015625 -40.84375 10.78125 -40.785156 11.59375 -40.671875 C 12.675781 -40.515625 13.394531 -40.144531 13.75 -39.5625 C 14.019531 -39.25 14.15625 -38.6875 14.15625 -37.875 C 14.15625 -37.757812 14.15625 -37.640625 14.15625 -37.515625 C 14.15625 -37.398438 14.132812 -37.285156 14.09375 -37.171875 C 14.09375 -36.785156 14.035156 -36.210938 13.921875 -35.453125 C 13.804688 -34.691406 13.648438 -33.75 13.453125 -32.625 L 12.9375 -28.90625 L 26.75 -28.90625 C 28.800781 -28.90625 30.195312 -28.84375 30.9375 -28.71875 C 31.875 -28.601562 32.515625 -28.3125 32.859375 -27.84375 C 33.210938 -27.5 33.390625 -26.78125 33.390625 -25.6875 C 33.390625 -24.914062 33.210938 -23.25 32.859375 -20.6875 L 31.109375 -8.21875 C 30.992188 -7.125 30.878906 -6.207031 30.765625 -5.46875 C 30.648438 -4.738281 30.550781 -4.175781 30.46875 -3.78125 C 30.238281 -2.738281 29.929688 -1.960938 29.546875 -1.453125 C 29.078125 -0.867188 28.257812 -0.460938 27.09375 -0.234375 C 26.28125 -0.117188 24.664062 -0.0625 22.25 -0.0625 L 21.671875 -0.0625 L 22.84375 -8.21875 L 24.59375 -20.6875 L 11.765625 -20.6875 L 10.015625 -8.21875 C 9.671875 -5.769531 9.378906 -4.140625 9.140625 -3.328125 C 8.867188 -2.160156 8.40625 -1.34375 7.75 -0.875 C 7.28125 -0.519531 6.539062 -0.285156 5.53125 -0.171875 C 5.144531 -0.128906 4.59375 -0.0976562 3.875 -0.078125 C 3.15625 -0.0664062 2.234375 -0.0625 1.109375 -0.0625 L 0.578125 -0.0625 L 1.75 -8.21875 L 4.25 -26.046875 Z M 6.296875 -40.84375 "/></g></g></g><g fill="#b61e23" fill-opacity="1"><g transform="translate(103.881759, 201.408424)"><g><path d="M 26.5625 -28.90625 C 28.28125 -28.90625 29.488281 -28.84375 30.1875 -28.71875 C 31.039062 -28.601562 31.617188 -28.410156 31.921875 -28.140625 C 32.503906 -27.753906 32.796875 -26.9375 32.796875 -25.6875 C 32.796875 -25.570312 32.796875 -25.457031 32.796875 -25.34375 C 32.796875 -25.226562 32.78125 -25.070312 32.75 -24.875 C 32.75 -24.53125 32.707031 -24.003906 32.625 -23.296875 C 32.550781 -22.597656 32.4375 -21.726562 32.28125 -20.6875 L 31.34375 -14.15625 L 30.53125 -8.21875 C 30.375 -6.820312 30.207031 -5.6875 30.03125 -4.8125 C 29.863281 -3.9375 29.703125 -3.285156 29.546875 -2.859375 C 29.304688 -2.035156 28.914062 -1.410156 28.375 -0.984375 C 27.945312 -0.679688 27.304688 -0.429688 26.453125 -0.234375 C 26.066406 -0.191406 25.40625 -0.140625 24.46875 -0.078125 C 23.539062 -0.0234375 22.335938 0 20.859375 0 L 8.21875 0 C 6.820312 0 5.675781 -0.0234375 4.78125 -0.078125 C 3.882812 -0.140625 3.222656 -0.191406 2.796875 -0.234375 C 1.984375 -0.429688 1.398438 -0.722656 1.046875 -1.109375 C 0.734375 -1.535156 0.578125 -2.210938 0.578125 -3.140625 L 0.578125 -3.5 C 0.660156 -4.3125 0.835938 -5.882812 1.109375 -8.21875 L 1.453125 -10.375 C 1.609375 -11.414062 1.742188 -12.285156 1.859375 -12.984375 C 1.984375 -13.691406 2.0625 -14.21875 2.09375 -14.5625 C 2.363281 -15.925781 2.753906 -16.859375 3.265625 -17.359375 C 3.804688 -17.898438 4.5625 -18.234375 5.53125 -18.359375 C 6.351562 -18.472656 7.847656 -18.53125 10.015625 -18.53125 L 22.203125 -18.53125 C 22.429688 -18.53125 22.632812 -18.539062 22.8125 -18.5625 C 22.988281 -18.582031 23.09375 -18.59375 23.125 -18.59375 C 23.320312 -18.625 23.5 -18.71875 23.65625 -18.875 C 23.769531 -18.988281 23.828125 -19.164062 23.828125 -19.40625 C 23.910156 -19.632812 23.96875 -20.0625 24 -20.6875 L 11.1875 -20.6875 C 10.132812 -20.6875 9.25 -20.695312 8.53125 -20.71875 C 7.8125 -20.738281 7.28125 -20.765625 6.9375 -20.796875 C 5.925781 -20.953125 5.207031 -21.300781 4.78125 -21.84375 C 4.425781 -22.394531 4.191406 -23.289062 4.078125 -24.53125 C 4.078125 -24.875 4.066406 -25.335938 4.046875 -25.921875 C 4.023438 -26.503906 4.015625 -27.164062 4.015625 -27.90625 L 4.015625 -28.90625 Z M 11.078125 -10.375 C 10.566406 -10.375 10.273438 -10.351562 10.203125 -10.3125 C 10.078125 -10.3125 9.9375 -10.234375 9.78125 -10.078125 C 9.707031 -10.003906 9.632812 -9.710938 9.5625 -9.203125 C 9.5625 -9.015625 9.5 -8.6875 9.375 -8.21875 L 20.796875 -8.21875 C 21.035156 -8.21875 21.238281 -8.226562 21.40625 -8.25 C 21.582031 -8.269531 21.691406 -8.28125 21.734375 -8.28125 C 21.960938 -8.3125 22.097656 -8.382812 22.140625 -8.5 C 22.210938 -8.582031 22.289062 -8.78125 22.375 -9.09375 C 22.445312 -9.320312 22.503906 -9.75 22.546875 -10.375 Z M 11.078125 -10.375 "/></g></g></g><g fill="#b61e23" fill-opacity="1"><g transform="translate(134.756838, 201.408424)"><g><path d="M 3.5 -20.75 C 3.6875 -22.03125 3.835938 -23.097656 3.953125 -23.953125 C 4.078125 -24.804688 4.195312 -25.425781 4.3125 -25.8125 C 4.664062 -26.9375 5.113281 -27.691406 5.65625 -28.078125 C 6.195312 -28.472656 7.007812 -28.726562 8.09375 -28.84375 C 8.445312 -28.882812 8.875 -28.90625 9.375 -28.90625 C 9.882812 -28.90625 10.46875 -28.90625 11.125 -28.90625 L 27.5 -28.90625 C 28.28125 -28.90625 28.929688 -28.90625 29.453125 -28.90625 C 29.972656 -28.90625 30.390625 -28.863281 30.703125 -28.78125 C 31.828125 -28.664062 32.585938 -28.296875 32.984375 -27.671875 C 33.253906 -27.285156 33.390625 -26.625 33.390625 -25.6875 C 33.390625 -25.570312 33.390625 -25.457031 33.390625 -25.34375 C 33.390625 -25.226562 33.367188 -25.09375 33.328125 -24.9375 C 33.328125 -24.582031 33.285156 -24.054688 33.203125 -23.359375 C 33.128906 -22.660156 33.015625 -21.789062 32.859375 -20.75 L 32.578125 -18.59375 L 31.40625 -10.375 L 31.109375 -8.21875 C 30.992188 -7.25 30.878906 -6.421875 30.765625 -5.734375 C 30.648438 -5.054688 30.550781 -4.539062 30.46875 -4.1875 C 30.238281 -2.945312 29.890625 -2.035156 29.421875 -1.453125 C 28.953125 -0.835938 28.078125 -0.429688 26.796875 -0.234375 C 25.984375 -0.117188 24.273438 -0.0625 21.671875 -0.0625 L 22.84375 -8.21875 L 23.125 -10.375 L 24.296875 -18.59375 L 24.59375 -20.75 C 24.195312 -20.75 23.863281 -20.75 23.59375 -20.75 C 23.320312 -20.75 23.109375 -20.726562 22.953125 -20.6875 C 22.765625 -20.6875 22.570312 -20.585938 22.375 -20.390625 C 22.332031 -20.347656 22.234375 -20.113281 22.078125 -19.6875 C 22.078125 -19.53125 22.019531 -19.164062 21.90625 -18.59375 L 20.75 -10.375 L 20.453125 -8.21875 C 20.296875 -7.09375 20.160156 -6.148438 20.046875 -5.390625 C 19.929688 -4.628906 19.8125 -4.035156 19.6875 -3.609375 C 19.457031 -2.566406 19.109375 -1.8125 18.640625 -1.34375 C 18.179688 -0.875 17.484375 -0.523438 16.546875 -0.296875 C 16.160156 -0.253906 15.507812 -0.203125 14.59375 -0.140625 C 13.675781 -0.0859375 12.484375 -0.0625 11.015625 -0.0625 L 12.171875 -8.21875 L 12.46875 -10.375 L 13.640625 -18.59375 L 13.921875 -20.75 C 13.222656 -20.75 12.796875 -20.726562 12.640625 -20.6875 C 12.367188 -20.6875 12.175781 -20.628906 12.0625 -20.515625 C 12.019531 -20.472656 11.957031 -20.398438 11.875 -20.296875 C 11.800781 -20.203125 11.726562 -20.0625 11.65625 -19.875 C 11.65625 -19.71875 11.597656 -19.289062 11.484375 -18.59375 L 10.3125 -10.375 L 10.015625 -8.21875 C 9.671875 -5.769531 9.378906 -4.140625 9.140625 -3.328125 C 8.867188 -2.191406 8.40625 -1.394531 7.75 -0.9375 C 7.238281 -0.539062 6.460938 -0.285156 5.421875 -0.171875 C 5.035156 -0.128906 4.441406 -0.0976562 3.640625 -0.078125 C 2.847656 -0.0664062 1.828125 -0.0625 0.578125 -0.0625 L 1.75 -8.21875 L 2.046875 -10.375 L 3.203125 -18.59375 Z M 3.5 -20.75 "/></g></g></g><g fill="#b61e23" fill-opacity="1"><g transform="translate(166.214471, 201.408424)"><g><path d="M 3.5 -20.6875 C 3.84375 -22.894531 4.070312 -24.347656 4.1875 -25.046875 C 4.46875 -26.296875 4.859375 -27.171875 5.359375 -27.671875 C 5.828125 -28.210938 6.546875 -28.546875 7.515625 -28.671875 C 8.328125 -28.785156 9.707031 -28.84375 11.65625 -28.84375 L 34.03125 -28.84375 C 33.875 -27.632812 33.726562 -26.640625 33.59375 -25.859375 C 33.457031 -25.085938 33.332031 -24.488281 33.21875 -24.0625 C 32.90625 -22.894531 32.472656 -22.097656 31.921875 -21.671875 C 31.421875 -21.203125 30.550781 -20.910156 29.3125 -20.796875 C 28.914062 -20.765625 28.328125 -20.738281 27.546875 -20.71875 C 26.773438 -20.695312 25.769531 -20.6875 24.53125 -20.6875 L 14.625 -20.6875 C 14.195312 -20.6875 13.835938 -20.6875 13.546875 -20.6875 C 13.253906 -20.6875 13.03125 -20.664062 12.875 -20.625 C 12.644531 -20.625 12.410156 -20.546875 12.171875 -20.390625 C 11.984375 -20.316406 11.832031 -20.082031 11.71875 -19.6875 C 11.675781 -19.570312 11.632812 -19.394531 11.59375 -19.15625 C 11.550781 -18.925781 11.492188 -18.617188 11.421875 -18.234375 L 10.015625 -8.15625 C 9.742188 -5.976562 9.515625 -4.503906 9.328125 -3.734375 C 9.203125 -3.222656 9.0625 -2.765625 8.90625 -2.359375 C 8.757812 -1.953125 8.566406 -1.613281 8.328125 -1.34375 C 7.898438 -0.875 7.300781 -0.523438 6.53125 -0.296875 C 6.132812 -0.210938 5.441406 -0.140625 4.453125 -0.078125 C 3.460938 -0.0234375 2.171875 0 0.578125 0 Z M 3.5 -20.6875 "/></g></g></g><g fill="#b61e23" fill-opacity="1"><g transform="translate(197.43909, 201.408424)"><g><path d="M 26.5625 -28.90625 C 28.28125 -28.90625 29.488281 -28.84375 30.1875 -28.71875 C 31.039062 -28.601562 31.617188 -28.410156 31.921875 -28.140625 C 32.503906 -27.753906 32.796875 -26.9375 32.796875 -25.6875 C 32.796875 -25.570312 32.796875 -25.457031 32.796875 -25.34375 C 32.796875 -25.226562 32.78125 -25.070312 32.75 -24.875 C 32.75 -24.53125 32.707031 -24.003906 32.625 -23.296875 C 32.550781 -22.597656 32.4375 -21.726562 32.28125 -20.6875 L 31.34375 -14.15625 L 30.53125 -8.21875 C 30.375 -6.820312 30.207031 -5.6875 30.03125 -4.8125 C 29.863281 -3.9375 29.703125 -3.285156 29.546875 -2.859375 C 29.304688 -2.035156 28.914062 -1.410156 28.375 -0.984375 C 27.945312 -0.679688 27.304688 -0.429688 26.453125 -0.234375 C 26.066406 -0.191406 25.40625 -0.140625 24.46875 -0.078125 C 23.539062 -0.0234375 22.335938 0 20.859375 0 L 8.21875 0 C 6.820312 0 5.675781 -0.0234375 4.78125 -0.078125 C 3.882812 -0.140625 3.222656 -0.191406 2.796875 -0.234375 C 1.984375 -0.429688 1.398438 -0.722656 1.046875 -1.109375 C 0.734375 -1.535156 0.578125 -2.210938 0.578125 -3.140625 L 0.578125 -3.5 C 0.660156 -4.3125 0.835938 -5.882812 1.109375 -8.21875 L 1.453125 -10.375 C 1.609375 -11.414062 1.742188 -12.285156 1.859375 -12.984375 C 1.984375 -13.691406 2.0625 -14.21875 2.09375 -14.5625 C 2.363281 -15.925781 2.753906 -16.859375 3.265625 -17.359375 C 3.804688 -17.898438 4.5625 -18.234375 5.53125 -18.359375 C 6.351562 -18.472656 7.847656 -18.53125 10.015625 -18.53125 L 22.203125 -18.53125 C 22.429688 -18.53125 22.632812 -18.539062 22.8125 -18.5625 C 22.988281 -18.582031 23.09375 -18.59375 23.125 -18.59375 C 23.320312 -18.625 23.5 -18.71875 23.65625 -18.875 C 23.769531 -18.988281 23.828125 -19.164062 23.828125 -19.40625 C 23.910156 -19.632812 23.96875 -20.0625 24 -20.6875 L 11.1875 -20.6875 C 10.132812 -20.6875 9.25 -20.695312 8.53125 -20.71875 C 7.8125 -20.738281 7.28125 -20.765625 6.9375 -20.796875 C 5.925781 -20.953125 5.207031 -21.300781 4.78125 -21.84375 C 4.425781 -22.394531 4.191406 -23.289062 4.078125 -24.53125 C 4.078125 -24.875 4.066406 -25.335938 4.046875 -25.921875 C 4.023438 -26.503906 4.015625 -27.164062 4.015625 -27.90625 L 4.015625 -28.90625 Z M 11.078125 -10.375 C 10.566406 -10.375 10.273438 -10.351562 10.203125 -10.3125 C 10.078125 -10.3125 9.9375 -10.234375 9.78125 -10.078125 C 9.707031 -10.003906 9.632812 -9.710938 9.5625 -9.203125 C 9.5625 -9.015625 9.5 -8.6875 9.375 -8.21875 L 20.796875 -8.21875 C 21.035156 -8.21875 21.238281 -8.226562 21.40625 -8.25 C 21.582031 -8.269531 21.691406 -8.28125 21.734375 -8.28125 C 21.960938 -8.3125 22.097656 -8.382812 22.140625 -8.5 C 22.210938 -8.582031 22.289062 -8.78125 22.375 -9.09375 C 22.445312 -9.320312 22.503906 -9.75 22.546875 -10.375 Z M 11.078125 -10.375 "/></g></g></g><g fill="#b61e23" fill-opacity="1"><g transform="translate(228.314176, 201.408424)"><g><path d="M 12.46875 -28.90625 L 25.171875 -28.90625 C 26.222656 -28.90625 27.097656 -28.90625 27.796875 -28.90625 C 28.492188 -28.90625 29.015625 -28.882812 29.359375 -28.84375 C 30.640625 -28.726562 31.515625 -28.492188 31.984375 -28.140625 C 32.523438 -27.753906 32.796875 -26.957031 32.796875 -25.75 C 32.796875 -25.59375 32.796875 -25.40625 32.796875 -25.1875 C 32.796875 -24.976562 32.78125 -24.738281 32.75 -24.46875 C 32.707031 -24.15625 32.644531 -23.6875 32.5625 -23.0625 C 32.488281 -22.445312 32.394531 -21.675781 32.28125 -20.75 L 31.921875 -18.53125 C 31.773438 -17.363281 31.640625 -16.398438 31.515625 -15.640625 C 31.398438 -14.890625 31.285156 -14.316406 31.171875 -13.921875 C 30.941406 -12.878906 30.570312 -12.066406 30.0625 -11.484375 C 29.476562 -10.972656 28.644531 -10.660156 27.5625 -10.546875 C 26.820312 -10.429688 25.421875 -10.375 23.359375 -10.375 L 11.125 -10.375 C 10.65625 -10.375 10.363281 -10.351562 10.25 -10.3125 C 10.0625 -10.3125 9.90625 -10.253906 9.78125 -10.140625 C 9.707031 -10.054688 9.632812 -9.820312 9.5625 -9.4375 C 9.5625 -9.28125 9.5 -8.875 9.375 -8.21875 L 22.203125 -8.21875 C 24.492188 -8.21875 25.945312 -8.160156 26.5625 -8.046875 C 27.5 -7.921875 28.140625 -7.628906 28.484375 -7.171875 C 28.953125 -6.703125 29.207031 -5.847656 29.25 -4.609375 C 29.320312 -4.253906 29.359375 -3.785156 29.359375 -3.203125 C 29.359375 -2.617188 29.359375 -1.878906 29.359375 -0.984375 L 29.359375 -0.0625 L 7.34375 -0.0625 C 6.175781 -0.0625 5.210938 -0.0859375 4.453125 -0.140625 C 3.703125 -0.203125 3.113281 -0.253906 2.6875 -0.296875 C 1.863281 -0.523438 1.28125 -0.890625 0.9375 -1.390625 C 0.695312 -1.828125 0.578125 -2.429688 0.578125 -3.203125 L 0.578125 -3.609375 C 0.617188 -4.347656 0.796875 -5.90625 1.109375 -8.28125 L 2.859375 -20.75 C 3.046875 -21.789062 3.195312 -22.648438 3.3125 -23.328125 C 3.4375 -24.015625 3.515625 -24.53125 3.546875 -24.875 C 3.859375 -26.3125 4.269531 -27.265625 4.78125 -27.734375 C 5.394531 -28.273438 6.207031 -28.601562 7.21875 -28.71875 C 8.039062 -28.84375 9.789062 -28.90625 12.46875 -28.90625 Z M 12.578125 -20.6875 C 12.003906 -20.6875 11.675781 -20.664062 11.59375 -20.625 C 11.519531 -20.625 11.40625 -20.546875 11.25 -20.390625 C 11.207031 -20.347656 11.175781 -20.28125 11.15625 -20.1875 C 11.132812 -20.09375 11.085938 -19.988281 11.015625 -19.875 C 11.015625 -19.71875 10.957031 -19.289062 10.84375 -18.59375 L 22.890625 -18.59375 C 23.203125 -18.625 23.4375 -18.71875 23.59375 -18.875 C 23.707031 -18.988281 23.765625 -19.144531 23.765625 -19.34375 C 23.804688 -19.570312 23.867188 -20.019531 23.953125 -20.6875 Z M 12.578125 -20.6875 "/></g></g></g><g fill="#b61e23" fill-opacity="1"><g transform="translate(259.189261, 201.408424)"><g><path d="M 2.328125 -28.90625 C 3.566406 -28.90625 4.59375 -28.90625 5.40625 -28.90625 C 6.226562 -28.90625 6.832031 -28.863281 7.21875 -28.78125 C 8.5 -28.664062 9.375 -28.335938 9.84375 -27.796875 C 10.46875 -27.210938 10.894531 -26.222656 11.125 -24.828125 C 11.207031 -24.472656 11.304688 -23.953125 11.421875 -23.265625 C 11.535156 -22.585938 11.648438 -21.75 11.765625 -20.75 L 13.515625 -8.21875 L 18.53125 -8.21875 C 18.875 -8.21875 19.148438 -8.226562 19.359375 -8.25 C 19.578125 -8.269531 19.75 -8.28125 19.875 -8.28125 C 20.0625 -8.3125 20.210938 -8.382812 20.328125 -8.5 C 20.453125 -8.625 20.53125 -8.78125 20.5625 -8.96875 C 20.6875 -9.164062 20.765625 -9.613281 20.796875 -10.3125 L 22.03125 -19.109375 L 23.421875 -28.90625 L 24.59375 -28.90625 C 25.40625 -28.90625 26.09375 -28.90625 26.65625 -28.90625 C 27.21875 -28.90625 27.675781 -28.863281 28.03125 -28.78125 C 29.269531 -28.664062 30.082031 -28.394531 30.46875 -27.96875 C 30.863281 -27.582031 31.0625 -26.84375 31.0625 -25.75 L 31.0625 -25.34375 C 31.0625 -24.644531 30.882812 -23.070312 30.53125 -20.625 L 28.78125 -8.21875 C 28.625 -7.007812 28.476562 -6.015625 28.34375 -5.234375 C 28.207031 -4.460938 28.082031 -3.863281 27.96875 -3.4375 C 27.738281 -2.382812 27.410156 -1.644531 26.984375 -1.21875 C 26.472656 -0.71875 25.789062 -0.390625 24.9375 -0.234375 C 24.550781 -0.191406 23.957031 -0.140625 23.15625 -0.078125 C 22.363281 -0.0234375 21.363281 0 20.15625 0 L 14.6875 0 C 13.164062 0 11.929688 -0.0234375 10.984375 -0.078125 C 10.035156 -0.140625 9.347656 -0.210938 8.921875 -0.296875 C 8.054688 -0.523438 7.394531 -0.890625 6.9375 -1.390625 C 6.625 -1.828125 6.3125 -2.53125 6 -3.5 C 5.957031 -3.925781 5.867188 -4.523438 5.734375 -5.296875 C 5.597656 -6.078125 5.4375 -7.050781 5.25 -8.21875 L 3.78125 -18.359375 Z M 2.328125 -28.90625 "/></g></g></g><g fill="#ffff" fill-opacity="1"><g transform="translate(148.785864, 214.23658)"><g><path d="M 2.828125 -9.28125 L 8.984375 -9.28125 L 8.734375 -8.0625 L 3.84375 -8.0625 L 3.25 -5.25 L 6.8125 -5.25 L 6.546875 -4.03125 L 2.984375 -4.03125 L 2.125 0 L 0.859375 0 Z M 2.828125 -9.28125 "/></g></g></g><g fill="#ffff" fill-opacity="1"><g transform="translate(162.166396, 214.23658)"><g><path d="M 2.828125 -9.28125 L 4.09375 -9.28125 L 2.125 0 L 0.859375 0 Z M 2.828125 -9.28125 "/></g></g></g><g fill="#ffff" fill-opacity="1"><g transform="translate(171.431346, 214.23658)"><g><path d="M 2.828125 -9.28125 L 4.09375 -9.28125 L 2.390625 -1.21875 L 7.28125 -1.21875 L 7.015625 0 L 0.859375 0 Z M 2.828125 -9.28125 "/></g></g></g><g fill="#ffff" fill-opacity="1"><g transform="translate(184.811879, 214.23658)"><g><path d="M 2.09375 -9.28125 L 8.875 -9.28125 L 8.625 -8.0625 L 5.875 -8.0625 L 4.15625 0 L 2.875 0 L 4.59375 -8.0625 L 1.84375 -8.0625 Z M 2.09375 -9.28125 "/></g></g></g><g fill="#ffff" fill-opacity="1"><g transform="translate(198.13276, 214.23658)"><g><path d="M 2.828125 -9.28125 L 8.984375 -9.28125 L 8.734375 -8.0625 L 3.84375 -8.0625 L 3.25 -5.25 L 6.8125 -5.25 L 6.546875 -4.03125 L 2.984375 -4.03125 L 2.390625 -1.21875 L 7.28125 -1.21875 L 7.015625 0 L 0.859375 0 Z M 2.828125 -9.28125 "/></g></g></g><g fill="#ffff" fill-opacity="1"><g transform="translate(211.644516, 214.23658)"><g><path d="M 2.828125 -9.28125 L 8.265625 -9.28125 C 8.597656 -9.28125 8.859375 -9.179688 9.046875 -8.984375 C 9.242188 -8.785156 9.34375 -8.535156 9.34375 -8.234375 C 9.34375 -8.191406 9.34375 -8.144531 9.34375 -8.09375 C 9.34375 -8.050781 9.335938 -8.007812 9.328125 -7.96875 L 8.59375 -4.546875 C 8.550781 -4.296875 8.445312 -4.066406 8.28125 -3.859375 C 8.113281 -3.660156 7.914062 -3.503906 7.6875 -3.390625 C 7.46875 -3.273438 7.234375 -3.21875 6.984375 -3.21875 L 6.921875 -3.21875 L 8.34375 0 L 6.8125 0 L 5.390625 -3.21875 L 2.8125 -3.21875 L 2.125 0 L 0.859375 0 Z M 3.0625 -4.4375 L 6.75 -4.4375 C 6.90625 -4.4375 7.046875 -4.488281 7.171875 -4.59375 C 7.304688 -4.695312 7.390625 -4.828125 7.421875 -4.984375 L 7.96875 -7.515625 C 7.96875 -7.546875 7.96875 -7.585938 7.96875 -7.640625 C 7.96875 -7.765625 7.925781 -7.863281 7.84375 -7.9375 C 7.757812 -8.019531 7.648438 -8.0625 7.515625 -8.0625 L 3.84375 -8.0625 Z M 3.0625 -4.4375 "/></g></g></g><g fill="#ffff" fill-opacity="1"><g transform="translate(226.349194, 214.23658)"><g><path d="M 4.15625 -9.28125 L 9.328125 -9.28125 L 9.078125 -8.0625 L 4.40625 -8.0625 C 4.25 -8.0625 4.101562 -8.007812 3.96875 -7.90625 C 3.84375 -7.8125 3.757812 -7.679688 3.71875 -7.515625 L 3.359375 -5.8125 C 3.359375 -5.78125 3.359375 -5.738281 3.359375 -5.6875 C 3.359375 -5.5625 3.398438 -5.457031 3.484375 -5.375 C 3.566406 -5.289062 3.675781 -5.25 3.8125 -5.25 L 7.421875 -5.25 C 7.753906 -5.25 8.015625 -5.148438 8.203125 -4.953125 C 8.398438 -4.765625 8.5 -4.519531 8.5 -4.21875 C 8.5 -4.125 8.488281 -4.023438 8.46875 -3.921875 L 7.921875 -1.328125 C 7.867188 -1.078125 7.757812 -0.851562 7.59375 -0.65625 C 7.4375 -0.457031 7.242188 -0.296875 7.015625 -0.171875 C 6.785156 -0.0546875 6.546875 0 6.296875 0 L 1.125 0 L 1.390625 -1.21875 L 6.0625 -1.21875 C 6.21875 -1.21875 6.359375 -1.269531 6.484375 -1.375 C 6.617188 -1.488281 6.703125 -1.617188 6.734375 -1.765625 L 7.109375 -3.46875 C 7.109375 -3.5 7.109375 -3.539062 7.109375 -3.59375 C 7.109375 -3.71875 7.066406 -3.820312 6.984375 -3.90625 C 6.898438 -3.988281 6.789062 -4.03125 6.65625 -4.03125 L 3.046875 -4.03125 C 2.722656 -4.03125 2.460938 -4.128906 2.265625 -4.328125 C 2.066406 -4.523438 1.96875 -4.773438 1.96875 -5.078125 C 1.96875 -5.117188 1.96875 -5.160156 1.96875 -5.203125 C 1.976562 -5.253906 1.988281 -5.304688 2 -5.359375 L 2.546875 -7.96875 C 2.609375 -8.207031 2.71875 -8.425781 2.875 -8.625 C 3.03125 -8.820312 3.21875 -8.976562 3.4375 -9.09375 C 3.664062 -9.21875 3.90625 -9.28125 4.15625 -9.28125 Z M 4.15625 -9.28125 "/></g></g></g></svg>